<svg width="32" height="32" viewBox="0 0 32 32" fill="none" xmlns="http://www.w3.org/2000/svg">
<path d="M15.98 2C16.2452 2 16.4996 2.10536 16.6871 2.29289C16.8747 2.48043 16.98 2.73478 16.98 3V7.41C16.98 7.67522 16.8747 7.92957 16.6871 8.11711C16.4996 8.30464 16.2452 8.41 15.98 8.41C15.7148 8.41 15.4604 8.30464 15.2729 8.11711C15.0854 7.92957 14.98 7.67522 14.98 7.41V3C14.98 2.73478 15.0854 2.48043 15.2729 2.29289C15.4604 2.10536 15.7148 2 15.98 2Z" fill="#0EA5E9"/>
<path d="M18.18 29.0102L23.45 23.0402C29.12 16.6102 24.56 6.49023 15.98 6.49023C7.40001 6.49023 2.84001 16.6102 8.51001 23.0402L13.78 29.0102C14.0559 29.3214 14.3946 29.5705 14.7738 29.7411C15.1531 29.9117 15.5642 30 15.98 30C16.3959 30 16.807 29.9117 17.1862 29.7411C17.5654 29.5705 17.9042 29.3214 18.18 29.0102Z" fill="#0284C7"/>
<path d="M9.62 13.2402C9.11 13.2402 8.69 13.6602 8.69 14.1702V15.1002C8.69 15.6102 9.11 16.0302 9.62 16.0302C10.13 16.0302 10.55 15.6102 10.55 15.1002V14.1702C10.55 13.6502 10.13 13.2402 9.62 13.2402ZM11.87 19.0702C11.87 18.5602 12.29 18.1402 12.8 18.1402C13.32 18.1402 13.73 18.5602 13.73 19.0702V20.0002C13.73 20.5102 13.31 20.9302 12.8 20.9302C12.29 20.9302 11.87 20.5102 11.87 20.0002V19.0702ZM18.24 19.0702C18.24 18.5602 18.66 18.1402 19.17 18.1402C19.69 18.1402 20.1 18.5602 20.1 19.0702V20.0002C20.1 20.5102 19.68 20.9302 19.17 20.9302C18.66 20.9302 18.24 20.5102 18.24 20.0002V19.0702ZM15.06 14.1702C15.06 13.6602 15.48 13.2402 15.99 13.2402C16.5 13.2402 16.92 13.6502 16.92 14.1702V15.1002C16.92 15.6102 16.5 16.0302 15.99 16.0302C15.48 16.0302 15.06 15.6102 15.06 15.1002V14.1702ZM15.99 22.6902C15.48 22.6902 15.06 23.1102 15.06 23.6202V24.5502C15.06 25.0602 15.48 25.4802 15.99 25.4802C16.5 25.4802 16.92 25.0602 16.92 24.5502V23.6202C16.92 23.1102 16.5 22.6902 15.99 22.6902ZM21.44 14.1702C21.44 13.6602 21.86 13.2402 22.37 13.2402C22.88 13.2402 23.3 13.6502 23.3 14.1702V15.1002C23.3 15.6102 22.88 16.0302 22.37 16.0302C21.86 16.0302 21.44 15.6102 21.44 15.1002V14.1702Z" fill="#0C4A6E"/>
<path d="M6.14001 11.44H11.68C12.5091 11.4409 13.3274 11.2518 14.0721 10.8872C14.8168 10.5227 15.4681 9.99236 15.976 9.337C16.4839 9.99163 17.1348 10.5214 17.8788 10.8859C18.6229 11.2504 19.4405 11.4399 20.269 11.44H25.809C25.809 8.44 23.379 6 20.369 6H11.579C8.57901 6 6.14001 8.44 6.14001 11.44Z" fill="#7DD3FC"/>
</svg>
