<svg width="634" height="634" viewBox="0 0 634 634" fill="none" xmlns="http://www.w3.org/2000/svg">
<rect width="634" height="634" fill="#223F3C"/>
<path d="M182.352 444H88.2649V189.455H182.228C208.163 189.455 230.494 194.55 249.22 204.742C268.029 214.851 282.53 229.434 292.722 248.492C302.913 267.467 308.009 290.171 308.009 316.603C308.009 343.118 302.913 365.905 292.722 384.962C282.613 404.02 268.154 418.645 249.344 428.837C230.535 438.946 208.205 444 182.352 444ZM149.788 391.55H179.991C194.243 391.55 206.299 389.147 216.159 384.341C226.102 379.452 233.601 371.539 238.656 360.602C243.793 349.581 246.362 334.915 246.362 316.603C246.362 298.291 243.793 283.708 238.656 272.853C233.518 261.915 225.937 254.044 215.911 249.238C205.967 244.349 193.704 241.905 179.121 241.905H149.788V391.55ZM350.929 444V189.455H457.072C476.13 189.455 492.081 192.147 504.924 197.533C517.85 202.919 527.545 210.46 534.008 220.154C540.554 229.849 543.827 241.076 543.827 253.837C543.827 263.531 541.797 272.19 537.737 279.813C533.676 287.353 528.083 293.609 520.957 298.581C513.831 303.553 505.587 307.033 496.224 309.021V311.507C506.498 312.004 515.986 314.78 524.686 319.835C533.469 324.889 540.512 331.932 545.815 340.964C551.118 349.913 553.77 360.519 553.77 372.782C553.77 386.454 550.29 398.676 543.33 409.447C536.369 420.136 526.302 428.588 513.127 434.803C499.952 440.934 483.96 444 465.151 444H350.929ZM412.452 394.408H450.485C463.826 394.408 473.644 391.881 479.942 386.827C486.322 381.772 489.512 374.729 489.512 365.697C489.512 359.152 487.979 353.517 484.913 348.794C481.848 343.988 477.497 340.301 471.863 337.732C466.228 335.081 459.475 333.755 451.604 333.755H412.452V394.408ZM412.452 294.107H446.508C453.219 294.107 459.185 292.988 464.406 290.751C469.626 288.513 473.686 285.282 476.586 281.056C479.569 276.83 481.06 271.734 481.06 265.768C481.06 257.234 478.036 250.522 471.987 245.634C465.938 240.745 457.777 238.3 447.502 238.3H412.452V294.107Z" fill="#B1DED4"/>
</svg>
